<svg width="121" height="35" viewBox="0 0 121 35" fill="none" xmlns="http://www.w3.org/2000/svg">
<path d="M0 0.556219H5.0026L10.2863 13.1572H10.5111L15.7947 0.556219H20.7973V19.3111H16.8627V7.10395H16.7035L11.7383 19.2195H9.05902L4.09389 7.05816H3.93463V19.3111H0V0.556219Z" fill="#333333"/>
<path d="M27.4464 19.3111H23.0996L29.7229 0.556219H34.9503L41.5642 19.3111H37.2174L32.4115 4.842H32.2616L27.4464 19.3111ZM27.1747 11.9392H37.4422V15.0345H27.1747V11.9392Z" fill="#333333"/>
<path d="M47.677 0.556219L51.546 6.94827H51.6959L55.5837 0.556219H60.1647L54.3096 9.93366L60.2959 19.3111H55.6306L51.6959 12.9099H51.546L47.6114 19.3111H42.9648L48.9698 9.93366L43.0772 0.556219H47.677Z" fill="#333333"/>
<path d="M68.8373 19.3111V0.556219H76.4068C77.862 0.556219 79.1017 0.827897 80.126 1.37125C81.1502 1.9085 81.9309 2.65638 82.468 3.61488C83.0114 4.56727 83.2831 5.66619 83.2831 6.91164C83.2831 8.15708 83.0082 9.256 82.4586 10.2084C81.909 11.1608 81.1128 11.9026 80.0698 12.4337C79.033 12.9648 77.7777 13.2304 76.3038 13.2304H71.4791V10.0527H75.648C76.4287 10.0527 77.0719 9.92145 77.5778 9.65893C78.09 9.39031 78.4709 9.02095 78.7207 8.55086C78.9768 8.07466 79.1049 7.52825 79.1049 6.91164C79.1049 6.28891 78.9768 5.74556 78.7207 5.28157C78.4709 4.81148 78.09 4.44822 77.5778 4.19181C77.0657 3.92929 76.4162 3.79803 75.6293 3.79803H72.8937V19.3111H68.8373Z" fill="#333333"/>
<path d="M85.9178 19.3111V0.556219H93.4873C94.9363 0.556219 96.1729 0.809581 97.1971 1.31631C98.2276 1.81692 99.0114 2.52817 99.5485 3.45004C100.092 4.36581 100.364 5.44336 100.364 6.68269C100.364 7.92814 100.089 8.99958 99.5392 9.89703C98.9896 10.7884 98.1933 11.4721 97.1503 11.9483C96.1135 12.4245 94.8582 12.6626 93.3843 12.6626H88.3161V9.47578H92.7285C93.5029 9.47578 94.1462 9.37199 94.6583 9.16442C95.1705 8.95685 95.5515 8.64548 95.8013 8.23034C96.0573 7.81519 96.1854 7.29931 96.1854 6.68269C96.1854 6.05997 96.0573 5.53493 95.8013 5.10758C95.5515 4.68022 95.1674 4.35665 94.649 4.13686C94.1369 3.91098 93.4905 3.79803 92.7098 3.79803H89.9743V19.3111H85.9178ZM96.279 10.7762L101.047 19.3111H96.5695L91.9041 10.7762H96.279Z" fill="#333333"/>
<path d="M120.861 9.93366C120.861 11.9789 120.465 13.7188 119.671 15.1535C118.884 16.5882 117.81 17.6841 116.449 18.4411C115.093 19.1921 113.57 19.5675 111.877 19.5675C110.172 19.5675 108.642 19.189 107.287 18.432C105.931 17.6749 104.86 16.5791 104.073 15.1444C103.286 13.7097 102.893 11.9728 102.893 9.93366C102.893 7.88845 103.286 6.1485 104.073 4.7138C104.86 3.2791 105.931 2.18628 107.287 1.43536C108.642 0.678321 110.172 0.299805 111.877 0.299805C113.57 0.299805 115.093 0.678321 116.449 1.43536C117.81 2.18628 118.884 3.2791 119.671 4.7138C120.465 6.1485 120.861 7.88845 120.861 9.93366ZM116.748 9.93366C116.748 8.60886 116.546 7.49162 116.14 6.58196C115.74 5.6723 115.175 4.98242 114.444 4.51233C113.713 4.04224 112.858 3.80719 111.877 3.80719C110.897 3.80719 110.041 4.04224 109.31 4.51233C108.579 4.98242 108.011 5.6723 107.605 6.58196C107.205 7.49162 107.006 8.60886 107.006 9.93366C107.006 11.2585 107.205 12.3757 107.605 13.2854C108.011 14.195 108.579 14.8849 109.31 15.355C110.041 15.8251 110.897 16.0601 111.877 16.0601C112.858 16.0601 113.713 15.8251 114.444 15.355C115.175 14.8849 115.74 14.195 116.14 13.2854C116.546 12.3757 116.748 11.2585 116.748 9.93366Z" fill="#333333"/>
<path d="M0.498239 29.2014V23.4688H2.75991C3.19283 23.4688 3.56231 23.5463 3.86835 23.7012C4.17625 23.8542 4.41044 24.0716 4.57092 24.3533C4.73327 24.6333 4.81444 24.9626 4.81444 25.3414C4.81444 25.7221 4.73233 26.0496 4.56812 26.3239C4.40391 26.5964 4.16598 26.8054 3.85435 26.9509C3.54459 27.0965 3.16951 27.1692 2.72912 27.1692H1.21481V26.1952H2.53318C2.76457 26.1952 2.95678 26.1634 3.10979 26.1C3.26281 26.0365 3.37664 25.9414 3.45128 25.8145C3.52779 25.6876 3.56605 25.5299 3.56605 25.3414C3.56605 25.1511 3.52779 24.9906 3.45128 24.86C3.37664 24.7294 3.26188 24.6305 3.10699 24.5633C2.95398 24.4942 2.76084 24.4597 2.52758 24.4597H1.71025V29.2014H0.498239ZM3.59404 26.5926L5.01877 29.2014H3.68081L2.28686 26.5926H3.59404Z" fill="#333333"/>
<path d="M6.22272 29.2014V23.4688H10.0855V24.4681H7.43473V25.8341H9.88673V26.8333H7.43473V28.2021H10.0967V29.2014H6.22272Z" fill="#333333"/>
<path d="M11.6008 23.4688H13.0955L14.6742 27.3204H14.7414L16.3201 23.4688H17.8148V29.2014H16.6392V25.4702H16.5916L15.1081 29.1734H14.3075L12.824 25.4562H12.7764V29.2014H11.6008V23.4688Z" fill="#333333"/>
<path d="M24.633 26.3351C24.633 26.9602 24.5145 27.4921 24.2775 27.9306C24.0424 28.3691 23.7215 28.7041 23.3147 28.9355C22.9097 29.165 22.4544 29.2798 21.9487 29.2798C21.4393 29.2798 20.9821 29.1641 20.5771 28.9327C20.1722 28.7013 19.8522 28.3663 19.6171 27.9278C19.3819 27.4893 19.2644 26.9584 19.2644 26.3351C19.2644 25.71 19.3819 25.1782 19.6171 24.7396C19.8522 24.3011 20.1722 23.9671 20.5771 23.7375C20.9821 23.5062 21.4393 23.3905 21.9487 23.3905C22.4544 23.3905 22.9097 23.5062 23.3147 23.7375C23.7215 23.9671 24.0424 24.3011 24.2775 24.7396C24.5145 25.1782 24.633 25.71 24.633 26.3351ZM23.4042 26.3351C23.4042 25.9302 23.3436 25.5887 23.2223 25.3106C23.1029 25.0326 22.934 24.8217 22.7157 24.678C22.4973 24.5344 22.2417 24.4625 21.9487 24.4625C21.6557 24.4625 21.4001 24.5344 21.1817 24.678C20.9634 24.8217 20.7936 25.0326 20.6723 25.3106C20.5529 25.5887 20.4932 25.9302 20.4932 26.3351C20.4932 26.74 20.5529 27.0815 20.6723 27.3596C20.7936 27.6376 20.9634 27.8485 21.1817 27.9922C21.4001 28.1359 21.6557 28.2077 21.9487 28.2077C22.2417 28.2077 22.4973 28.1359 22.7157 27.9922C22.934 27.8485 23.1029 27.6376 23.2223 27.3596C23.3436 27.0815 23.4042 26.74 23.4042 26.3351Z" fill="#333333"/>
<path d="M28.1147 29.2014H26.0826V23.4688H28.1315C28.7081 23.4688 29.2045 23.5836 29.6207 23.8131C30.0368 24.0408 30.3568 24.3683 30.5807 24.7956C30.8065 25.2229 30.9194 25.7342 30.9194 26.3295C30.9194 26.9266 30.8065 27.4398 30.5807 27.869C30.3568 28.2982 30.0349 28.6276 29.6151 28.8571C29.1971 29.0866 28.697 29.2014 28.1147 29.2014ZM27.2946 28.1629H28.0644C28.4226 28.1629 28.724 28.0995 28.9685 27.9726C29.2148 27.8438 29.3995 27.6451 29.5227 27.3764C29.6477 27.1058 29.7102 26.7568 29.7102 26.3295C29.7102 25.9059 29.6477 25.5598 29.5227 25.291C29.3995 25.0223 29.2157 24.8245 28.9713 24.6976C28.7268 24.5707 28.4254 24.5073 28.0672 24.5073H27.2946V28.1629Z" fill="#333333"/>
<path d="M32.369 29.2014V23.4688H36.2317V24.4681H33.581V25.8341H36.033V26.8333H33.581V28.2021H36.2429V29.2014H32.369Z" fill="#333333"/>
<path d="M37.7471 29.2014V23.4688H38.9591V28.2021H41.4167V29.2014H37.7471Z" fill="#333333"/>
<path d="M43.9831 23.4688V29.2014H42.7711V23.4688H43.9831Z" fill="#333333"/>
<path d="M50.3269 23.4688V29.2014H49.28L46.786 25.5933H46.7441V29.2014H45.532V23.4688H46.5957L49.0701 27.0741H49.1205V23.4688H50.3269Z" fill="#333333"/>
<path d="M55.6812 25.3218C55.642 25.1856 55.587 25.0653 55.516 24.9608C55.4451 24.8544 55.3584 24.7648 55.2557 24.692C55.155 24.6174 55.0393 24.5605 54.9086 24.5213C54.7799 24.4821 54.6371 24.4625 54.4804 24.4625C54.1874 24.4625 53.9299 24.5353 53.7078 24.6808C53.4876 24.8264 53.316 25.0382 53.1928 25.3162C53.0696 25.5924 53.0081 25.9302 53.0081 26.3295C53.0081 26.7288 53.0687 27.0685 53.19 27.3484C53.3113 27.6283 53.483 27.842 53.705 27.9894C53.9271 28.1349 54.1893 28.2077 54.4916 28.2077C54.7659 28.2077 55.0001 28.1592 55.1941 28.0621C55.3901 27.9632 55.5394 27.8242 55.642 27.6451C55.7465 27.4659 55.7988 27.2541 55.7988 27.0097L56.0451 27.0461H54.5672V26.1336H56.966V26.8557C56.966 27.3596 56.8596 27.7925 56.6469 28.1545C56.4341 28.5147 56.1412 28.7927 55.768 28.9886C55.3947 29.1827 54.9674 29.2798 54.486 29.2798C53.9486 29.2798 53.4764 29.1613 53.0696 28.9243C52.6628 28.6854 52.3456 28.3467 52.1179 27.9082C51.8922 27.4678 51.7793 26.9453 51.7793 26.3407C51.7793 25.8761 51.8464 25.4618 51.9808 25.0979C52.117 24.7322 52.3074 24.4224 52.5518 24.1686C52.7963 23.9148 53.0808 23.7217 53.4055 23.5892C53.7302 23.4567 54.082 23.3905 54.4608 23.3905C54.7855 23.3905 55.0878 23.438 55.3677 23.5332C55.6476 23.6265 55.8958 23.759 56.1122 23.9307C56.3306 24.1024 56.5088 24.3067 56.6469 24.5437C56.785 24.7788 56.8736 25.0382 56.9128 25.3218H55.6812Z" fill="#333333"/>
<path d="M62.5396 29.2854C62.144 29.2854 61.8026 29.2144 61.5152 29.0726C61.2278 28.9308 61.0067 28.7386 60.8518 28.496C60.6988 28.2516 60.6223 27.9791 60.6223 27.6787C60.6223 27.4547 60.667 27.256 60.7566 27.0825C60.8462 26.9089 60.9712 26.7494 61.1317 26.6038C61.2922 26.4564 61.4788 26.3099 61.6915 26.1644L62.8028 25.4338C62.9464 25.3424 63.0519 25.2463 63.1191 25.1455C63.1862 25.0429 63.2198 24.9318 63.2198 24.8124C63.2198 24.6986 63.1741 24.5931 63.0827 24.4961C62.9912 24.3991 62.8615 24.3515 62.6936 24.3533C62.5816 24.3533 62.4846 24.3785 62.4025 24.4289C62.3204 24.4774 62.256 24.5418 62.2093 24.6221C62.1646 24.7004 62.1422 24.7881 62.1422 24.8852C62.1422 25.0046 62.1758 25.1259 62.2429 25.2491C62.3101 25.3722 62.3997 25.5028 62.5117 25.6409C62.6236 25.7772 62.7458 25.9246 62.8783 26.0832L65.5963 29.2014H64.3535L62.0862 26.6766C61.9369 26.5068 61.7876 26.3295 61.6383 26.1448C61.4909 25.9582 61.3678 25.7604 61.2689 25.5514C61.17 25.3405 61.1205 25.1119 61.1205 24.8656C61.1205 24.5875 61.1849 24.3375 61.3136 24.1154C61.4443 23.8934 61.6271 23.718 61.8623 23.5892C62.0974 23.4586 62.3717 23.3933 62.6852 23.3933C62.9912 23.3933 63.2553 23.4558 63.4773 23.5808C63.7013 23.704 63.8729 23.8682 63.9924 24.0734C64.1137 24.2768 64.1743 24.5008 64.1743 24.7452C64.1743 25.0158 64.1071 25.2612 63.9728 25.4814C63.8403 25.6997 63.6537 25.8957 63.413 26.0692L62.2429 26.9117C62.0843 27.0274 61.9668 27.1459 61.8903 27.2672C61.8156 27.3866 61.7783 27.5014 61.7783 27.6115C61.7783 27.7477 61.8119 27.8699 61.8791 27.9782C61.9462 28.0864 62.0414 28.1722 62.1646 28.2357C62.2877 28.2973 62.4323 28.3281 62.5984 28.3281C62.8 28.3281 62.9987 28.2823 63.1946 28.1909C63.3924 28.0976 63.5716 27.966 63.7321 27.7962C63.8944 27.6246 64.0241 27.4212 64.1211 27.186C64.2182 26.9509 64.2667 26.6906 64.2667 26.4051H65.2548C65.2548 26.7559 65.2165 27.0722 65.14 27.354C65.0635 27.6339 64.9571 27.8783 64.8209 28.0873C64.6847 28.2945 64.5289 28.4643 64.3535 28.5968C64.2975 28.6322 64.2434 28.6658 64.1911 28.6975C64.1389 28.7293 64.0847 28.7629 64.0288 28.7983C63.816 28.97 63.5781 29.0941 63.315 29.1706C63.0537 29.2471 62.7953 29.2854 62.5396 29.2854Z" fill="#333333"/>
<path d="M69.0433 29.2014V23.4688H70.2553V25.8341H72.7157V23.4688H73.9249V29.2014H72.7157V26.8333H70.2553V29.2014H69.0433Z" fill="#333333"/>
<path d="M76.464 29.2014H75.1653L77.1442 23.4688H78.7061L80.6823 29.2014H79.3835L77.9476 24.7788H77.9028L76.464 29.2014ZM76.3829 26.9481H79.4507V27.8942H76.3829V26.9481Z" fill="#333333"/>
<path d="M86.7188 23.4688V29.2014H85.672L83.178 25.5933H83.136V29.2014H81.924V23.4688H82.9877L85.4621 27.0741H85.5124V23.4688H86.7188Z" fill="#333333"/>
<path d="M90.3041 29.2014H88.272V23.4688H90.3209C90.8975 23.4688 91.3939 23.5836 91.81 23.8131C92.2262 24.0408 92.5462 24.3683 92.7701 24.7956C92.9959 25.2229 93.1088 25.7342 93.1088 26.3295C93.1088 26.9266 92.9959 27.4398 92.7701 27.869C92.5462 28.2982 92.2243 28.6276 91.8044 28.8571C91.3865 29.0866 90.8863 29.2014 90.3041 29.2014ZM89.484 28.1629H90.2537C90.612 28.1629 90.9134 28.0995 91.1579 27.9726C91.4042 27.8438 91.5889 27.6451 91.7121 27.3764C91.8371 27.1058 91.8996 26.7568 91.8996 26.3295C91.8996 25.9059 91.8371 25.5598 91.7121 25.291C91.5889 25.0223 91.4051 24.8245 91.1607 24.6976C90.9162 24.5707 90.6148 24.5073 90.2565 24.5073H89.484V28.1629Z" fill="#333333"/>
<path d="M93.8761 23.4688H95.2337L96.5408 25.9376H96.5968L97.904 23.4688H99.2616L97.1706 27.1748V29.2014H95.967V27.1748L93.8761 23.4688Z" fill="#333333"/>
<path d="M100.475 23.4688H101.97L103.549 27.3204H103.616L105.195 23.4688H106.689V29.2014H105.514V25.4702H105.466L103.983 29.1734H103.182L101.699 25.4562H101.651V29.2014H100.475V23.4688Z" fill="#333333"/>
<path d="M109.228 29.2014H107.929L109.908 23.4688H111.47L113.446 29.2014H112.147L110.711 24.7788H110.666L109.228 29.2014ZM109.147 26.9481H112.214V27.8942H109.147V26.9481Z" fill="#333333"/>
<path d="M119.483 23.4688V29.2014H118.436L115.942 25.5933H115.9V29.2014H114.688V23.4688H115.751L118.226 27.0741H118.276V23.4688H119.483Z" fill="#333333"/>
<path d="M0 32.7046H120.861V34.4562H0V32.7046Z" fill="#F27D08"/>
</svg>
