<svg width="76" height="29" viewBox="0 0 76 29" fill="none" xmlns="http://www.w3.org/2000/svg">
<path d="M0 27H75V29H0V27Z" fill="#F27D08"/>
<path d="M0 0H6.25325L12.8578 15.7512H13.1389L19.7434 0H25.9967V23.4436H21.0784V8.18466H20.8793L14.6729 23.3291H11.3238L5.11736 8.12742H4.91829V23.4436H0V0Z" fill="#333333"/>
<path d="M34.308 23.4436H28.8745L37.1536 0H43.6879L51.9553 23.4436H46.5218L40.5144 5.35723H40.327L34.308 23.4436ZM33.9684 14.2287H46.8028V18.0978H33.9684V14.2287Z" fill="#333333"/>
<path d="M59.5962 0L64.4325 7.99006H64.6199L69.4796 0H75.2059L67.887 11.7218L75.3699 23.4436H69.5382L64.6199 15.4421H64.4325L59.5142 23.4436H53.706L61.2122 11.7218L53.8465 0H59.5962Z" fill="#333333"/>
</svg>
