<svg width="48" height="48" viewBox="0 0 48 48" fill="none" xmlns="http://www.w3.org/2000/svg">
<path d="M25.4109 20.3776C25.3682 21.206 25.3194 22.1522 24.7976 22.8078C24.7561 22.8557 24.7121 22.9014 24.6659 22.9448C24.4098 23.2171 24.0834 23.4131 23.7229 23.5111L23.6533 23.5272C23.263 23.6179 22.8545 23.5905 22.4798 23.4486C22.4224 23.4303 22.366 23.4089 22.3108 23.3848C21.5572 23.0253 21.1004 22.1974 20.7012 21.474C20.658 21.3957 20.6148 21.3174 20.5726 21.2423L19.98 20.1866C18.7308 17.9614 17.4816 15.7364 16.2522 13.4994C16.112 13.244 15.9684 12.9915 15.8249 12.7393C15.4168 12.0223 15.0101 11.3076 14.6901 10.5363C14.66 10.4638 14.6292 10.3906 14.5981 10.3167C14.2602 9.51394 13.8894 8.63286 14.0672 7.76989C14.4116 6.1029 16.4455 5.23302 17.8922 4.75912C18.3367 4.61679 18.7909 4.49646 19.2499 4.38628C19.7088 4.2761 20.1715 4.18991 20.6333 4.1258C22.141 3.91707 24.3508 3.80647 25.3871 5.15209C25.9242 5.85024 25.9755 6.80327 26.0223 7.67251C26.0267 7.75335 26.031 7.83346 26.0357 7.91257C26.085 8.74711 26.0317 9.56867 25.9783 10.393C25.9596 10.682 25.9408 10.9714 25.9264 11.2618C25.8096 13.6415 25.6682 16.0204 25.5268 18.3989C25.4927 18.9722 25.4586 19.5455 25.4249 20.1188C25.4199 20.2033 25.4155 20.29 25.4109 20.3776Z" fill="#333333"/>
<path d="M39.0509 19.459C38.548 18.4036 37.8719 17.44 37.0508 16.6084C36.9446 16.5028 36.8309 16.4051 36.7104 16.3161C36.5992 16.2327 36.4836 16.1551 36.3642 16.0838C36.2415 16.0165 36.1153 15.9558 35.9861 15.902C35.7306 15.8017 35.4568 15.7565 35.1829 15.7693C34.9207 15.7842 34.6648 15.8561 34.4332 15.9798C34.0819 16.1544 33.7018 16.4351 33.1963 16.9051C33.1501 16.9509 33.0961 17.0007 33.042 17.0505L33.0036 17.0858L32.9599 17.1265C32.6254 17.4409 32.2609 17.814 31.8449 18.2398L31.5267 18.5651C30.6738 19.427 29.8337 20.2937 28.9989 21.1698L27.5053 22.7187C27.2319 23.0018 26.9828 23.3075 26.7609 23.6326C26.5718 23.9073 26.4379 24.2163 26.367 24.5424C26.326 24.7922 26.332 25.0477 26.3848 25.2953L26.3924 25.3285C26.5105 25.8416 26.8227 26.2887 27.2638 26.5755C27.7047 26.8626 28.2398 26.9671 28.7565 26.8669C28.8383 26.8551 28.9018 26.841 28.9405 26.8316L37.0249 24.9638C37.6131 24.8286 38.2047 24.6927 38.7325 24.3863C39.1106 24.167 39.4704 23.9496 39.7172 23.5111C39.8489 23.2701 39.9287 23.0041 39.9514 22.7305C40.0735 21.6452 39.5069 20.4126 39.0509 19.459Z" fill="#333333"/>
<path d="M18.502 29.2378L20.3438 28.8122C20.3826 28.8033 20.4465 28.7886 20.5247 28.7633C21.0329 28.6265 21.4684 28.298 21.7395 27.8464C22.0106 27.3949 22.0961 26.8559 21.978 26.343L21.9704 26.3098C21.9099 26.0639 21.8039 25.8315 21.6579 25.6248C21.4515 25.3628 21.1961 25.1438 20.9059 24.9798C20.5643 24.785 20.2068 24.6193 19.8372 24.4849L17.8177 23.7477C16.6844 23.3264 15.5511 22.9156 14.4072 22.515C14.2594 22.4624 14.1162 22.4111 13.9771 22.3613C13.4182 22.1612 12.9281 21.9857 12.4907 21.8504C12.457 21.84 12.4221 21.8296 12.3873 21.8192C12.3155 21.7978 12.2437 21.7764 12.1814 21.755C11.5212 21.5526 11.0573 21.4687 10.6647 21.4659C10.4025 21.4563 10.1413 21.504 9.89925 21.6055C9.64703 21.7143 9.42051 21.8751 9.2345 22.0774C9.14197 22.1826 9.05498 22.2926 8.97387 22.4067C8.89776 22.5232 8.82797 22.6435 8.76478 22.7674C8.69521 22.9004 8.63541 23.0381 8.58589 23.1796C8.21107 24.2876 8.02436 25.4505 8.03352 26.62C8.04028 27.6773 8.06868 29.0342 8.64981 29.9541C8.78985 30.1902 8.97777 30.3943 9.20146 30.5532C9.61546 30.839 10.0338 30.8767 10.4691 30.9081C11.0784 30.9518 11.6699 30.8143 12.2587 30.6774L18.4968 29.236L18.502 29.2378Z" fill="#333333"/>
<path d="M24.1066 30.7099C23.8814 30.3931 23.5617 30.1556 23.1933 30.0315C22.825 29.9074 22.4267 29.9029 22.0556 30.019C21.9684 30.0478 21.8834 30.0832 21.8013 30.1244C21.6744 30.189 21.5533 30.2645 21.4393 30.3501C21.1075 30.596 20.828 30.9155 20.5735 31.2359C20.5507 31.2647 20.5287 31.2969 20.5063 31.3295C20.4652 31.3895 20.423 31.451 20.3733 31.4963L19.0923 33.2584C18.3663 34.2454 17.6502 35.235 16.9402 36.2403C16.8478 36.3697 16.758 36.4951 16.6707 36.6168L16.6691 36.6191C16.3195 37.1067 16.0127 37.5348 15.7597 37.9224C15.7378 37.9557 15.7157 37.9903 15.6936 38.0249C15.655 38.0852 15.6167 38.1453 15.5804 38.1969C15.2011 38.7839 14.9862 39.2123 14.8759 39.5938C14.7931 39.8475 14.7669 40.116 14.7991 40.3807C14.8344 40.6565 14.9272 40.9216 15.0716 41.1591C15.1484 41.2781 15.2311 41.3933 15.3195 41.504C15.4114 41.6107 15.5089 41.7121 15.6118 41.8081C15.7216 41.9128 15.839 42.0093 15.9632 42.0968C16.8473 42.7118 17.8152 43.1538 18.8333 43.4953C19.6805 43.7765 20.5612 43.9449 21.4525 43.9959C21.6041 44.0037 21.7561 44.0002 21.9073 43.9861C22.0474 43.9739 22.1868 43.9543 22.3249 43.9275C22.4629 43.8953 22.599 43.8556 22.7328 43.809C22.9931 43.7116 23.2301 43.5608 23.4285 43.3661C23.6163 43.1779 23.7609 42.9511 23.8521 42.7013C24.0002 42.3323 24.0975 41.8636 24.1616 41.168C24.1653 41.1022 24.1728 41.0277 24.1803 40.9531C24.1841 40.9156 24.1878 40.878 24.1911 40.8416C24.2308 40.3884 24.2536 39.873 24.2796 39.2866C24.2867 39.1262 24.294 38.9604 24.302 38.7892C24.3646 37.563 24.4137 36.3423 24.4526 35.1181C24.4526 35.1181 24.5351 32.9427 24.5348 32.9414C24.5537 32.4401 24.5382 31.8845 24.3992 31.3854C24.3381 31.1461 24.2394 30.9182 24.1066 30.7099Z" fill="#333333"/>
<path d="M37.3218 33.1694C37.9193 33.5308 38.2981 33.8231 38.5656 34.1163C38.7508 34.3077 38.892 34.5378 38.9789 34.7898C39.0672 35.0531 39.0994 35.3317 39.0731 35.6082C39.0565 35.7489 39.0326 35.8888 39.0016 36.027C38.9655 36.1631 38.9225 36.2972 38.8727 36.4289C38.8196 36.5711 38.7563 36.7094 38.683 36.8426C38.1562 37.7837 37.4791 38.6056 36.7131 39.3595C36.0743 39.9842 35.3561 40.5219 34.5768 40.9589C34.4442 41.0323 34.3063 41.096 34.1643 41.1494C34.0329 41.2 33.8988 41.2435 33.7627 41.28C33.6247 41.3117 33.485 41.3359 33.3442 41.3526C33.0676 41.38 32.7882 41.3489 32.5244 41.2615C32.2735 41.1748 32.0443 41.0343 31.8533 40.8498C31.5583 40.5802 31.2672 40.2042 30.9051 39.607C30.8716 39.5469 30.8306 39.4801 30.7897 39.4136C30.7718 39.3843 30.7538 39.355 30.7365 39.3265C30.5 38.9316 30.2508 38.4719 29.9669 37.9482C29.8936 37.813 29.818 37.6736 29.7397 37.5299C29.1479 36.4561 28.5707 35.3789 28.0005 34.2956L26.9755 32.3747C26.7396 31.9321 26.5116 31.427 26.4178 30.9163C26.371 30.6751 26.3621 30.4284 26.3913 30.1845C26.455 29.8012 26.6379 29.4477 26.914 29.1745C27.1902 28.901 27.5454 28.722 27.9292 28.6625C28.0202 28.6503 28.1119 28.6447 28.2038 28.6458C28.3461 28.6483 28.488 28.663 28.6279 28.6899C29.0336 28.7653 29.4246 28.9299 29.7932 29.1063C29.8262 29.1221 29.86 29.1413 29.8943 29.1607C29.9578 29.1966 30.023 29.2335 30.0875 29.2525L32.0068 30.2704C33.093 30.8412 34.1692 31.4167 35.2445 32.0071C35.3973 32.09 35.5453 32.1699 35.6885 32.2472C36.2013 32.5239 36.6524 32.7673 37.0413 33.0012C37.0727 33.02 37.105 33.0398 37.1373 33.0595C37.2009 33.0985 37.2647 33.1375 37.3218 33.1694Z" fill="#333333"/>
</svg>
