<svg aria-hidden="true" style="position: absolute; width: 0; height: 0; overflow: hidden;" version="1.1" xmlns="http://www.w3.org/2000/svg" xmlns:xlink="http://www.w3.org/1999/xlink">
<defs>
<symbol id="icon-facebook" viewBox="0 0 32 32">
<path d="M16 0c8.837 0 16 7.163 16 16 0 8.18-6.139 14.926-14.062 15.883v-10.993h4.328l0.898-4.889h-5.226v-1.729c0-1.292 0.253-2.186 0.835-2.758s1.491-0.82 2.802-0.82c0.332 0 0.638 0.003 0.909 0.010 0.394 0.010 0.716 0.026 0.94 0.050v-4.432c-0.089-0.025-0.195-0.050-0.313-0.074-0.268-0.055-0.601-0.109-0.959-0.156-0.748-0.098-1.606-0.168-2.206-0.168-2.423 0-4.254 0.518-5.532 1.592-1.542 1.296-2.279 3.4-2.279 6.378v2.107h-3.299v4.889h3.299v10.639c-6.969-1.729-12.135-8.025-12.135-15.529 0-8.837 7.163-16 16-16z"></path>
</symbol>
<symbol id="icon-telegram" viewBox="0 0 32 32">
<path d="M3.35 14.465c7.874-3.431 13.125-5.692 15.752-6.785 7.501-3.12 9.060-3.662 10.076-3.68 0.223-0.004 0.723 0.051 1.047 0.314 0.273 0.222 0.348 0.521 0.384 0.731s0.081 0.689 0.045 1.063c-0.406 4.271-2.165 14.636-3.060 19.419-0.379 2.024-1.124 2.703-1.846 2.769-1.569 0.144-2.76-1.037-4.279-2.032-2.377-1.558-3.72-2.528-6.028-4.049-2.667-1.757-0.938-2.723 0.582-4.302 0.398-0.413 7.309-6.699 7.443-7.27 0.017-0.071 0.032-0.337-0.126-0.478s-0.391-0.092-0.559-0.054c-0.238 0.054-4.036 2.564-11.393 7.531-1.078 0.74-2.054 1.101-2.929 1.082-0.964-0.021-2.82-0.545-4.199-0.994-1.692-0.55-3.036-0.841-2.919-1.774 0.061-0.486 0.731-0.984 2.009-1.492z"></path>
</symbol>
<symbol id="icon-left" viewBox="0 0 44 45">
<path d="M17.6478 37.3281C14.2083 37.6361 7.32969 38.9308 7.33031 41.6466C7.24006 38.2436 6.09022 30.97 2.21292 29.0998" stroke="#333333" stroke-width="3" stroke-linecap="round"/>
<path d="M40.1265 4.72412C20.4585 3.64459 13.8155 18.1122 10.073 35.8677" stroke="#333333" stroke-width="3" stroke-linecap="round"/>
</symbol>
</symbol>
<symbol id="icon-elp" viewBox="0 0 32 32">
<path d="M16.941 13.585c-0.028 0.552-0.061 1.183-0.409 1.62-0.028 0.032-0.057 0.062-0.088 0.091-0.171 0.182-0.388 0.312-0.629 0.378l-0.046 0.011c-0.26 0.060-0.533 0.042-0.782-0.052-0.038-0.012-0.076-0.026-0.113-0.043-0.502-0.24-0.807-0.792-1.073-1.274-0.029-0.052-0.058-0.104-0.086-0.154l-0.395-0.704c-0.833-1.483-1.666-2.967-2.485-4.458-0.093-0.17-0.189-0.339-0.285-0.507-0.272-0.478-0.543-0.954-0.757-1.469-0.020-0.048-0.041-0.097-0.061-0.146-0.225-0.535-0.472-1.123-0.354-1.698 0.23-1.111 1.586-1.691 2.55-2.007 0.296-0.095 0.599-0.175 0.905-0.249s0.614-0.131 0.922-0.174c1.005-0.139 2.478-0.213 3.169 0.684 0.358 0.465 0.392 1.101 0.423 1.68 0.003 0.054 0.006 0.107 0.009 0.16 0.033 0.556-0.003 1.104-0.038 1.654-0.012 0.193-0.025 0.386-0.035 0.579-0.078 1.586-0.172 3.172-0.266 4.758-0.023 0.382-0.045 0.764-0.068 1.147-0.003 0.056-0.006 0.114-0.009 0.173z"></path>
<path d="M26.034 12.973c-0.335-0.704-0.786-1.346-1.333-1.9-0.071-0.070-0.147-0.136-0.227-0.195-0.074-0.056-0.151-0.107-0.231-0.155-0.082-0.045-0.166-0.085-0.252-0.121-0.17-0.067-0.353-0.097-0.535-0.088-0.175 0.010-0.345 0.058-0.5 0.14-0.234 0.116-0.488 0.304-0.825 0.617-0.031 0.031-0.067 0.064-0.103 0.097l-0.026 0.024-0.029 0.027c-0.223 0.21-0.466 0.458-0.743 0.742l-0.212 0.217c-0.569 0.575-1.129 1.152-1.685 1.736l-0.996 1.033c-0.182 0.189-0.348 0.393-0.496 0.609-0.126 0.183-0.215 0.389-0.263 0.607-0.027 0.167-0.023 0.337 0.012 0.502l0.005 0.022c0.079 0.342 0.287 0.64 0.581 0.831s0.651 0.261 0.995 0.194c0.055-0.008 0.097-0.017 0.123-0.024l5.39-1.245c0.392-0.090 0.787-0.181 1.138-0.385 0.252-0.146 0.492-0.291 0.656-0.583 0.088-0.161 0.141-0.338 0.156-0.52 0.081-0.724-0.296-1.545-0.6-2.181z"></path>
<path d="M12.335 19.492l1.228-0.284c0.026-0.006 0.068-0.016 0.121-0.033 0.339-0.091 0.629-0.31 0.81-0.611s0.238-0.66 0.159-1.002l-0.005-0.022c-0.040-0.164-0.111-0.319-0.208-0.457-0.138-0.175-0.308-0.321-0.501-0.43-0.228-0.13-0.466-0.24-0.712-0.33l-1.346-0.491c-0.756-0.281-1.511-0.555-2.274-0.822-0.099-0.035-0.194-0.069-0.287-0.102-0.373-0.133-0.699-0.25-0.991-0.341-0.022-0.007-0.046-0.014-0.069-0.021-0.048-0.014-0.096-0.029-0.137-0.043-0.44-0.135-0.749-0.191-1.011-0.193-0.175-0.006-0.349 0.025-0.51 0.093-0.168 0.073-0.319 0.18-0.443 0.315-0.062 0.070-0.12 0.143-0.174 0.22-0.051 0.078-0.097 0.158-0.139 0.24-0.046 0.089-0.086 0.18-0.119 0.275-0.25 0.739-0.374 1.514-0.368 2.294 0.005 0.705 0.023 1.609 0.411 2.223 0.093 0.157 0.219 0.293 0.368 0.399 0.276 0.191 0.555 0.216 0.845 0.237 0.406 0.029 0.801-0.063 1.193-0.154l4.162-0.96z"></path>
<path d="M16.071 20.473c-0.15-0.211-0.363-0.37-0.609-0.452s-0.511-0.086-0.758-0.008c-0.058 0.019-0.115 0.043-0.17 0.070-0.085 0.043-0.165 0.093-0.241 0.15-0.221 0.164-0.408 0.377-0.577 0.591-0.015 0.019-0.030 0.041-0.045 0.062-0.027 0.040-0.056 0.081-0.089 0.111l-0.854 1.175c-0.484 0.658-0.961 1.318-1.435 1.988-0.062 0.086-0.121 0.17-0.18 0.251l-0.001 0.002c-0.233 0.325-0.438 0.61-0.606 0.869-0.015 0.022-0.029 0.045-0.044 0.068-0.026 0.040-0.051 0.080-0.075 0.115-0.253 0.391-0.396 0.677-0.47 0.931-0.055 0.169-0.073 0.348-0.051 0.525 0.024 0.184 0.085 0.361 0.182 0.519 0.051 0.079 0.106 0.156 0.165 0.23 0.061 0.071 0.126 0.139 0.195 0.203 0.073 0.070 0.151 0.134 0.234 0.192 0.589 0.41 1.235 0.705 1.913 0.932 0.565 0.187 1.152 0.3 1.746 0.334 0.101 0.005 0.202 0.003 0.303-0.007 0.093-0.008 0.186-0.021 0.278-0.039 0.092-0.021 0.183-0.048 0.272-0.079 0.174-0.065 0.332-0.165 0.464-0.295 0.125-0.125 0.222-0.277 0.282-0.443 0.099-0.246 0.164-0.558 0.206-1.022 0.002-0.044 0.007-0.094 0.012-0.143 0.003-0.025 0.005-0.050 0.007-0.074 0.026-0.302 0.042-0.646 0.059-1.037 0.005-0.107 0.010-0.217 0.015-0.332 0.042-0.817 0.074-1.631 0.1-2.447 0 0 0.055-1.45 0.055-1.451 0.013-0.334 0.002-0.705-0.090-1.037-0.041-0.16-0.107-0.311-0.195-0.45z"></path>
<path d="M24.881 22.113c0.398 0.241 0.651 0.436 0.829 0.631 0.123 0.128 0.218 0.281 0.276 0.449 0.059 0.176 0.080 0.361 0.063 0.546-0.011 0.094-0.027 0.187-0.048 0.279-0.024 0.091-0.053 0.18-0.086 0.268-0.035 0.095-0.078 0.187-0.126 0.276-0.351 0.627-0.803 1.175-1.313 1.678-0.426 0.416-0.905 0.775-1.424 1.066-0.088 0.049-0.18 0.091-0.275 0.127-0.088 0.034-0.177 0.063-0.268 0.087-0.092 0.021-0.185 0.037-0.279 0.048-0.184 0.018-0.371-0.002-0.547-0.061-0.167-0.058-0.32-0.151-0.447-0.274-0.197-0.18-0.391-0.43-0.632-0.829-0.022-0.040-0.050-0.085-0.077-0.129-0.012-0.020-0.024-0.039-0.035-0.058-0.158-0.263-0.324-0.57-0.513-0.919-0.049-0.090-0.099-0.183-0.151-0.279-0.395-0.716-0.779-1.434-1.159-2.156l-0.683-1.281c-0.157-0.295-0.309-0.632-0.372-0.972-0.031-0.161-0.037-0.325-0.018-0.488 0.042-0.256 0.164-0.491 0.348-0.673s0.421-0.302 0.677-0.341c0.061-0.008 0.122-0.012 0.183-0.011 0.095 0.002 0.189 0.011 0.283 0.029 0.27 0.050 0.531 0.16 0.777 0.278 0.022 0.011 0.045 0.023 0.067 0.036 0.042 0.024 0.086 0.049 0.129 0.061l1.28 0.679c0.724 0.381 1.442 0.764 2.158 1.158 0.102 0.055 0.201 0.109 0.296 0.16 0.342 0.184 0.643 0.347 0.902 0.503 0.021 0.013 0.042 0.026 0.064 0.039 0.042 0.026 0.085 0.052 0.123 0.073z"></path>
</symbol>
<symbol id="icon-instargam" viewBox="0 0 32 32">
<path d="M27.928 11.052c-0.058-1.277-0.261-2.15-0.558-2.913-0.307-0.789-0.717-1.458-1.384-2.125s-1.336-1.077-2.125-1.384c-0.763-0.297-1.636-0.5-2.913-0.558-1.28-0.058-1.689-0.072-4.948-0.072s-3.668 0.014-4.948 0.072c-1.277 0.058-2.15 0.261-2.913 0.558-0.789 0.307-1.458 0.717-2.125 1.384s-1.077 1.336-1.384 2.125c-0.297 0.763-0.5 1.636-0.558 2.913-0.058 1.28-0.072 1.689-0.072 4.948s0.014 3.668 0.072 4.948c0.058 1.277 0.261 2.15 0.558 2.913 0.307 0.789 0.717 1.458 1.384 2.125s1.336 1.077 2.125 1.384c0.763 0.297 1.636 0.499 2.913 0.558 1.28 0.058 1.689 0.072 4.948 0.072s3.668-0.014 4.948-0.072c1.277-0.058 2.15-0.261 2.913-0.558 0.789-0.307 1.458-0.717 2.125-1.384s1.077-1.336 1.384-2.125c0.297-0.763 0.499-1.636 0.558-2.913 0.058-1.28 0.072-1.689 0.072-4.948s-0.014-3.668-0.072-4.948zM25.768 20.849c-0.053 1.17-0.249 1.805-0.413 2.228-0.218 0.56-0.478 0.96-0.898 1.38s-0.82 0.68-1.38 0.898c-0.423 0.164-1.058 0.36-2.228 0.413-1.265 0.058-1.645 0.070-4.849 0.070s-3.584-0.012-4.849-0.070c-1.17-0.053-1.805-0.249-2.228-0.413-0.56-0.218-0.96-0.478-1.38-0.898s-0.68-0.82-0.898-1.38c-0.164-0.423-0.36-1.058-0.413-2.228-0.058-1.265-0.070-1.645-0.070-4.849s0.012-3.584 0.070-4.849c0.053-1.17 0.249-1.805 0.413-2.228 0.218-0.56 0.478-0.96 0.898-1.38s0.82-0.68 1.38-0.898c0.423-0.164 1.058-0.36 2.228-0.413 1.265-0.058 1.645-0.070 4.849-0.070s3.584 0.012 4.849 0.070c1.17 0.053 1.805 0.249 2.228 0.413 0.56 0.218 0.96 0.478 1.38 0.898s0.68 0.82 0.898 1.38c0.164 0.423 0.36 1.058 0.413 2.228 0.058 1.265 0.070 1.645 0.070 4.849s-0.012 3.584-0.070 4.849zM16 9.838c-3.403 0-6.162 2.759-6.162 6.162s2.759 6.162 6.162 6.162c3.403 0 6.162-2.759 6.162-6.162s-2.759-6.162-6.162-6.162zM16 20c-2.209 0-4-1.791-4-4s1.791-4 4-4c2.209 0 4 1.791 4 4s-1.791 4-4 4zM23.846 9.594c0 0.795-0.645 1.44-1.44 1.44s-1.44-0.645-1.44-1.44c0-0.795 0.645-1.44 1.44-1.44s1.44 0.645 1.44 1.44z"></path>
</symbol>
<symbol id="icon-youtube" viewBox="0 0 32 32">
<path d="M30.328 6.446c0.496 0.5 0.853 1.121 1.034 1.802 0.669 2.513 0.669 7.753 0.669 7.753s0 5.24-0.669 7.753c-0.181 0.681-0.537 1.302-1.034 1.802s-1.116 0.86-1.795 1.045c-2.502 0.673-12.502 0.673-12.502 0.673s-10 0-12.502-0.673c-0.68-0.185-1.299-0.546-1.795-1.045s-0.853-1.121-1.034-1.802c-0.669-2.513-0.669-7.753-0.669-7.753s0-5.24 0.669-7.753c0.181-0.681 0.537-1.302 1.034-1.802s1.116-0.86 1.795-1.045c2.502-0.673 12.502-0.673 12.502-0.673s10 0 12.502 0.673c0.68 0.185 1.299 0.546 1.795 1.045zM21.122 16l-8.364-4.758v9.516l8.364-4.758z"></path>
</symbol>
<symbol id="icon-face-back" viewBox="0 0 32 32">
<path fill="#333" style="fill: var(--color1, #333)" d="M10.667 0h10.667c5.891 0 10.667 4.776 10.667 10.667v10.667c0 5.891-4.776 10.667-10.667 10.667h-10.667c-5.891 0-10.667-4.776-10.667-10.667v-10.667c0-5.891 4.776-10.667 10.667-10.667z"></path>
<path fill="#fff" style="fill: var(--color2, #fff)" d="M16 3.2c7.069 0 12.8 5.731 12.8 12.8 0 6.544-4.911 11.941-11.249 12.706v-8.795h3.463l0.718-3.911h-4.181v-1.383c0-1.034 0.203-1.749 0.668-2.206s1.193-0.656 2.242-0.656c0.266 0 0.51 0.003 0.727 0.008 0.316 0.008 0.573 0.021 0.752 0.040v-3.546c-0.071-0.020-0.156-0.040-0.251-0.059-0.214-0.044-0.481-0.087-0.767-0.125-0.599-0.078-1.285-0.134-1.764-0.134-1.938 0-3.403 0.415-4.425 1.273-1.234 1.037-1.824 2.72-1.824 5.103v1.685h-2.639v3.911h2.639v8.512c-5.575-1.383-9.708-6.42-9.708-12.423 0-7.069 5.731-12.8 12.8-12.8z"></path>
</symbol>
<symbol id="icon-tel-back" viewBox="0 0 32 32">
<path fill="#333" style="fill: var(--color1, #333)" d="M10.667 0h10.667c5.891 0 10.667 4.776 10.667 10.667v10.667c0 5.891-4.776 10.667-10.667 10.667h-10.667c-5.891 0-10.667-4.776-10.667-10.667v-10.667c0-5.891 4.776-10.667 10.667-10.667z"></path>
<path fill="#fff" style="fill: var(--color2, #fff)" d="M6.913 14.833c0.045-0.023 0.090-0.044 0.133-0.064 0.76-0.352 1.53-0.682 2.299-1.011 0.041 0 0.111-0.048 0.15-0.064 0.059-0.026 0.119-0.050 0.178-0.076 0.114-0.049 0.229-0.098 0.342-0.147 0.229-0.098 0.456-0.195 0.685-0.293l1.369-0.586c0.913-0.39 1.826-0.781 2.739-1.172s1.826-0.781 2.739-1.172c0.913-0.39 1.826-0.781 2.739-1.172s1.826-0.781 2.739-1.172c0.203-0.087 0.423-0.218 0.64-0.256 0.183-0.032 0.361-0.095 0.545-0.13 0.349-0.066 0.733-0.093 1.067 0.052 0.115 0.050 0.222 0.121 0.311 0.21 0.424 0.419 0.364 1.108 0.275 1.697-0.624 4.11-1.249 8.221-1.874 12.331-0.085 0.564-0.202 1.183-0.647 1.539-0.377 0.302-0.913 0.335-1.378 0.207s-0.876-0.399-1.278-0.665c-1.669-1.105-3.34-2.211-5.009-3.316-0.397-0.262-0.839-0.605-0.834-1.082 0.002-0.287 0.174-0.543 0.349-0.77 1.451-1.892 3.544-3.193 5.101-4.998 0.22-0.255 0.392-0.714 0.091-0.861-0.179-0.087-0.386 0.031-0.549 0.145-2.058 1.429-4.116 2.86-6.174 4.289-0.672 0.466-1.376 0.946-2.185 1.061-0.724 0.103-1.453-0.099-2.154-0.305-0.587-0.173-1.174-0.35-1.758-0.533-0.311-0.096-0.631-0.201-0.871-0.419s-0.378-0.586-0.233-0.878c0.091-0.183 0.267-0.298 0.452-0.392l0.002 0.001z"></path>
</symbol>
<symbol id="icon-you-beck" viewBox="0 0 32 32">
<path fill="#333" style="fill: var(--color1, #333)" d="M10.667 0h10.667c5.891 0 10.667 4.776 10.667 10.667v10.667c0 5.891-4.776 10.667-10.667 10.667h-10.667c-5.891 0-10.667-4.776-10.667-10.667v-10.667c0-5.891 4.776-10.667 10.667-10.667z"></path>
<path fill="#fff" style="fill: var(--color2, #fff)" d="M26.075 12.365c-0.126-1.215-0.397-2.559-1.394-3.265-0.772-0.548-1.788-0.568-2.735-0.567-2.004 0-4.008 0.003-6.012 0.005-1.927 0.002-3.854 0.003-5.781 0.006-0.805 0-1.588-0.062-2.335 0.287-0.642 0.299-1.145 0.868-1.447 1.501-0.419 0.88-0.507 1.878-0.558 2.851-0.093 1.773-0.083 3.55 0.028 5.322 0.082 1.293 0.29 2.722 1.29 3.546 0.886 0.73 2.136 0.766 3.285 0.767 3.647 0.003 7.296 0.007 10.944 0.009 0.468 0.001 0.956-0.008 1.432-0.060 0.938-0.101 1.831-0.37 2.434-1.065 0.608-0.7 0.764-1.675 0.857-2.598 0.225-2.24 0.223-4.501-0.008-6.739zM13.825 18.82v-6.279l5.437 3.139-5.437 3.14z"></path>
</symbol>
<symbol id="icon-inst-beck" viewBox="0 0 32 32">
<path fill="#333" style="fill: var(--color1, #333)" d="M10.667 0h10.667c5.891 0 10.667 4.776 10.667 10.667v10.667c0 5.891-4.776 10.667-10.667 10.667h-10.667c-5.891 0-10.667-4.776-10.667-10.667v-10.667c0-5.891 4.776-10.667 10.667-10.667z"></path>
<path fill="#fff" style="fill: var(--color2, #fff)" d="M21.263 6.4h-9.902c-2.736 0-4.961 2.225-4.961 4.961v9.059c0 2.736 2.225 4.961 4.961 4.961h9.902c2.736 0 4.961-2.225 4.961-4.961v-9.059c0-2.736-2.225-4.961-4.961-4.961zM8.15 11.361c0-1.77 1.441-3.211 3.211-3.211h9.902c1.77 0 3.211 1.441 3.211 3.211v9.059c0 1.77-1.441 3.211-3.211 3.211h-9.902c-1.77 0-3.211-1.441-3.211-3.211v-9.059z"></path>
<path fill="#fff" style="fill: var(--color2, #fff)" d="M16.312 20.503c2.544 0 4.614-2.070 4.614-4.614s-2.070-4.614-4.614-4.614-4.614 2.070-4.614 4.614c0 2.545 2.070 4.614 4.614 4.614zM16.312 13.025c1.58 0 2.864 1.285 2.864 2.864s-1.285 2.864-2.864 2.864c-1.58 0-2.864-1.285-2.864-2.864s1.285-2.864 2.864-2.864z"></path>
<path fill="#fff" style="fill: var(--color2, #fff)" d="M21.353 12.021c0.685 0 1.243-0.557 1.243-1.244s-0.557-1.244-1.243-1.244c-0.686 0-1.243 0.557-1.243 1.244s0.557 1.244 1.243 1.244z"></path>
</symbol>
<symbol id="icon-elp-bek" viewBox="0 0 32 32">
<path fill="#333" style="fill: var(--color1, #333)" d="M10.667 0h10.667c5.891 0 10.667 4.776 10.667 10.667v10.667c0 5.891-4.776 10.667-10.667 10.667h-10.667c-5.891 0-10.667-4.776-10.667-10.667v-10.667c0-5.891 4.776-10.667 10.667-10.667z"></path>
<path fill="#fff" style="fill: var(--color2, #fff)" d="M16.753 14.068c-0.023 0.442-0.049 0.946-0.327 1.296-0.022 0.026-0.046 0.050-0.070 0.073-0.137 0.145-0.311 0.25-0.503 0.302l-0.037 0.009c-0.208 0.048-0.426 0.034-0.626-0.042-0.031-0.010-0.061-0.021-0.090-0.034-0.402-0.192-0.646-0.633-0.858-1.019-0.023-0.042-0.046-0.084-0.069-0.124l-0.316-0.563c-0.666-1.187-1.332-2.373-1.988-3.567-0.075-0.136-0.151-0.271-0.228-0.405-0.218-0.382-0.435-0.764-0.605-1.175-0.016-0.039-0.032-0.078-0.049-0.117-0.18-0.428-0.378-0.898-0.283-1.358 0.184-0.889 1.268-1.353 2.040-1.606 0.237-0.076 0.479-0.14 0.724-0.199s0.492-0.105 0.738-0.139c0.804-0.111 1.983-0.17 2.535 0.547 0.287 0.372 0.314 0.881 0.339 1.344 0.002 0.043 0.005 0.086 0.007 0.128 0.026 0.445-0.002 0.883-0.031 1.323-0.010 0.154-0.020 0.308-0.028 0.463-0.062 1.269-0.138 2.538-0.213 3.807-0.018 0.306-0.036 0.612-0.054 0.917-0.003 0.045-0.005 0.091-0.007 0.138z"></path>
<path fill="#fff" style="fill: var(--color2, #fff)" d="M24.027 13.578c-0.268-0.563-0.629-1.077-1.067-1.52-0.057-0.056-0.117-0.108-0.182-0.156-0.059-0.044-0.121-0.086-0.185-0.124-0.065-0.036-0.133-0.068-0.202-0.097-0.136-0.053-0.282-0.078-0.428-0.071-0.14 0.008-0.276 0.046-0.4 0.112-0.187 0.093-0.39 0.243-0.66 0.493-0.025 0.025-0.053 0.051-0.082 0.078l-0.020 0.019-0.023 0.022c-0.178 0.168-0.373 0.367-0.595 0.594l-0.17 0.173c-0.455 0.46-0.903 0.922-1.348 1.389l-0.797 0.826c-0.146 0.151-0.279 0.314-0.397 0.487-0.101 0.147-0.172 0.311-0.21 0.485-0.022 0.133-0.019 0.269 0.009 0.402l0.004 0.018c0.063 0.274 0.23 0.512 0.465 0.665s0.521 0.209 0.796 0.155c0.044-0.006 0.077-0.014 0.098-0.019l4.312-0.996c0.314-0.072 0.629-0.145 0.911-0.308 0.202-0.117 0.394-0.233 0.525-0.467 0.070-0.128 0.113-0.27 0.125-0.416 0.065-0.579-0.237-1.236-0.48-1.745z"></path>
<path fill="#fff" style="fill: var(--color2, #fff)" d="M13.068 18.794l0.982-0.227c0.021-0.005 0.055-0.013 0.097-0.026 0.271-0.073 0.503-0.248 0.648-0.489s0.19-0.528 0.127-0.802l-0.004-0.018c-0.032-0.131-0.089-0.255-0.167-0.365-0.11-0.14-0.246-0.257-0.401-0.344-0.182-0.104-0.373-0.192-0.57-0.264l-1.077-0.393c-0.604-0.225-1.209-0.444-1.819-0.657-0.079-0.028-0.155-0.055-0.229-0.082-0.298-0.107-0.559-0.2-0.793-0.273-0.018-0.006-0.037-0.011-0.055-0.017-0.038-0.011-0.077-0.023-0.11-0.034-0.352-0.108-0.6-0.153-0.809-0.154-0.14-0.005-0.279 0.020-0.408 0.074-0.134 0.058-0.255 0.144-0.355 0.252-0.049 0.056-0.096 0.115-0.139 0.176-0.041 0.062-0.078 0.126-0.112 0.192-0.037 0.071-0.069 0.144-0.095 0.22-0.2 0.591-0.299 1.211-0.295 1.835 0.004 0.564 0.019 1.288 0.329 1.778 0.075 0.126 0.175 0.235 0.294 0.319 0.221 0.152 0.444 0.173 0.676 0.189 0.325 0.023 0.64-0.050 0.954-0.123l3.33-0.768z"></path>
<path fill="#fff" style="fill: var(--color2, #fff)" d="M16.057 19.579c-0.12-0.169-0.291-0.296-0.487-0.362s-0.409-0.069-0.607-0.007c-0.046 0.015-0.092 0.034-0.136 0.056-0.068 0.034-0.132 0.075-0.193 0.12-0.177 0.131-0.326 0.301-0.462 0.472-0.012 0.015-0.024 0.033-0.036 0.050-0.022 0.032-0.044 0.065-0.071 0.089l-0.683 0.94c-0.387 0.526-0.769 1.054-1.148 1.59-0.049 0.069-0.097 0.136-0.144 0.201l-0.001 0.001c-0.186 0.26-0.35 0.488-0.485 0.695-0.012 0.018-0.023 0.036-0.035 0.055-0.021 0.032-0.041 0.064-0.060 0.092-0.202 0.313-0.317 0.541-0.376 0.745-0.044 0.135-0.058 0.279-0.041 0.42 0.019 0.147 0.068 0.288 0.145 0.415 0.041 0.064 0.085 0.125 0.132 0.184 0.049 0.057 0.101 0.111 0.156 0.162 0.059 0.056 0.121 0.107 0.187 0.154 0.472 0.328 0.988 0.564 1.531 0.746 0.452 0.15 0.921 0.24 1.397 0.267 0.081 0.004 0.162 0.002 0.243-0.005 0.075-0.006 0.149-0.017 0.223-0.031 0.074-0.017 0.146-0.038 0.218-0.063 0.139-0.052 0.265-0.132 0.371-0.236 0.1-0.1 0.177-0.221 0.226-0.354 0.079-0.197 0.131-0.447 0.165-0.818 0.002-0.035 0.006-0.075 0.010-0.115 0.002-0.020 0.004-0.040 0.006-0.060 0.021-0.242 0.033-0.517 0.047-0.829 0.004-0.086 0.008-0.174 0.012-0.265 0.033-0.654 0.060-1.305 0.080-1.958 0 0 0.044-1.16 0.044-1.161 0.010-0.267 0.002-0.564-0.072-0.83-0.033-0.128-0.085-0.249-0.156-0.36z"></path>
<path fill="#fff" style="fill: var(--color2, #fff)" d="M23.105 20.89c0.319 0.193 0.521 0.349 0.663 0.505 0.099 0.102 0.174 0.225 0.22 0.359 0.047 0.14 0.064 0.289 0.050 0.436-0.009 0.075-0.022 0.15-0.038 0.223-0.019 0.073-0.042 0.144-0.069 0.214-0.028 0.076-0.062 0.15-0.101 0.221-0.281 0.502-0.642 0.94-1.051 1.342-0.341 0.333-0.724 0.62-1.139 0.853-0.071 0.039-0.144 0.073-0.22 0.102-0.070 0.027-0.142 0.050-0.214 0.070-0.074 0.017-0.148 0.030-0.223 0.039-0.148 0.015-0.297-0.002-0.437-0.049-0.134-0.046-0.256-0.121-0.358-0.22-0.157-0.144-0.313-0.344-0.506-0.663-0.018-0.032-0.040-0.068-0.061-0.103-0.010-0.016-0.019-0.031-0.028-0.047-0.126-0.211-0.259-0.456-0.41-0.735-0.039-0.072-0.079-0.146-0.121-0.223-0.316-0.573-0.623-1.147-0.928-1.725l-0.547-1.025c-0.126-0.236-0.247-0.505-0.297-0.778-0.025-0.129-0.030-0.26-0.014-0.39 0.034-0.204 0.132-0.393 0.279-0.539s0.337-0.241 0.541-0.273c0.049-0.006 0.097-0.009 0.146-0.009 0.076 0.001 0.152 0.009 0.226 0.023 0.216 0.040 0.425 0.128 0.622 0.222 0.018 0.009 0.036 0.019 0.054 0.029 0.034 0.019 0.069 0.039 0.103 0.049l1.024 0.543c0.579 0.304 1.153 0.611 1.727 0.926 0.081 0.044 0.16 0.087 0.237 0.128 0.273 0.148 0.514 0.277 0.721 0.402 0.017 0.010 0.034 0.021 0.051 0.031 0.034 0.021 0.068 0.041 0.098 0.059z"></path>
</symbol>

<symbol id="icon-burger"  viewBox="0 0 24 25">
<path d="M3 5H21" stroke="#292D32" stroke-width="1.5" stroke-linecap="round" stroke-linejoin="round"/>
<path d="M3 10H12.47" stroke="#292D32" stroke-width="1.5" stroke-linecap="round" stroke-linejoin="round"/>
<path d="M3 15H21" stroke="#292D32" stroke-width="1.5" stroke-linecap="round" stroke-linejoin="round"/>
<path d="M3 20H12.47" stroke="#292D32" stroke-width="1.5" stroke-linecap="round" stroke-linejoin="round"/>
</symbol>

<symbol id="icon-logo" viewBox="0 0 113 32">
<path fill="#333" style="fill: var(--color1, #333)" d="M0 0.239h4.654l4.915 11.722h0.209l4.915-11.722h4.654v17.446h-3.66v-11.355h-0.148l-4.619 11.27h-2.492l-4.619-11.313h-0.148v11.398h-3.66v-17.446z"></path>
<path fill="#333" style="fill: var(--color1, #333)" d="M25.532 17.685h-4.044l6.161-17.446h4.863l6.152 17.446h-4.044l-4.471-13.46h-0.139l-4.479 13.46zM25.279 10.827h9.551v2.879h-9.551v-2.879z"></path>
<path fill="#333" style="fill: var(--color1, #333)" d="M44.351 0.239l3.599 5.946h0.139l3.617-5.946h4.261l-5.447 8.723 5.569 8.723h-4.34l-3.66-5.955h-0.139l-3.66 5.955h-4.322l5.586-8.723-5.481-8.723h4.279z"></path>
<path fill="#333" style="fill: var(--color1, #333)" d="M64.035 17.685v-17.446h7.041c1.354 0 2.507 0.253 3.459 0.758 0.953 0.5 1.68 1.195 2.179 2.087 0.505 0.886 0.758 1.908 0.758 3.067s-0.256 2.181-0.767 3.067c-0.511 0.886-1.252 1.576-2.222 2.070-0.964 0.494-2.132 0.741-3.503 0.741h-4.488v-2.956h3.878c0.726 0 1.325-0.122 1.795-0.366 0.476-0.25 0.831-0.594 1.063-1.031 0.238-0.443 0.357-0.951 0.357-1.525 0-0.579-0.119-1.085-0.357-1.516-0.232-0.437-0.587-0.775-1.063-1.014-0.476-0.244-1.081-0.366-1.813-0.366h-2.545v14.431h-3.773z"></path>
<path fill="#333" style="fill: var(--color1, #333)" d="M79.923 17.685v-17.446h7.041c1.348 0 2.498 0.236 3.451 0.707 0.959 0.466 1.688 1.127 2.188 1.985 0.505 0.852 0.758 1.854 0.758 3.007 0 1.159-0.255 2.155-0.766 2.99-0.511 0.829-1.252 1.465-2.222 1.908-0.964 0.443-2.132 0.664-3.504 0.664h-4.714v-2.964h4.105c0.72 0 1.319-0.097 1.795-0.29s0.831-0.483 1.063-0.869c0.238-0.386 0.357-0.866 0.357-1.44 0-0.579-0.119-1.068-0.357-1.465-0.233-0.398-0.59-0.699-1.072-0.903-0.476-0.21-1.078-0.315-1.804-0.315h-2.544v14.431h-3.774zM89.562 9.745l4.435 7.939h-4.165l-4.34-7.939h4.070z"></path>
<path fill="#333" style="fill: var(--color1, #333)" d="M112.429 8.962c0 1.902-0.368 3.521-1.107 4.856-0.732 1.335-1.731 2.354-2.998 3.058-1.261 0.698-2.678 1.048-4.253 1.048-1.586 0-3.010-0.352-4.27-1.056s-2.257-1.724-2.989-3.058c-0.732-1.335-1.098-2.95-1.098-4.847 0-1.902 0.366-3.521 1.098-4.856s1.728-2.351 2.989-3.050c1.261-0.704 2.684-1.056 4.27-1.056 1.575 0 2.992 0.352 4.253 1.056 1.267 0.699 2.266 1.715 2.998 3.050 0.738 1.335 1.107 2.953 1.107 4.856zM108.604 8.962c0-1.232-0.189-2.272-0.567-3.118-0.371-0.846-0.897-1.488-1.577-1.925s-1.476-0.656-2.388-0.656c-0.912 0-1.708 0.219-2.387 0.656s-1.209 1.079-1.587 1.925c-0.371 0.846-0.557 1.885-0.557 3.118s0.186 2.272 0.557 3.118c0.378 0.846 0.906 1.488 1.587 1.925s1.476 0.656 2.387 0.656c0.912 0 1.709-0.219 2.388-0.656s1.206-1.079 1.577-1.925c0.378-0.846 0.567-1.886 0.567-3.118z"></path>
<path fill="#333" style="fill: var(--color1, #333)" d="M0.463 26.885v-5.333h2.104c0.403 0 0.746 0.072 1.031 0.216 0.286 0.142 0.504 0.345 0.654 0.607 0.151 0.26 0.227 0.567 0.227 0.919 0 0.354-0.076 0.659-0.229 0.914-0.153 0.253-0.374 0.448-0.664 0.583-0.288 0.135-0.637 0.203-1.047 0.203h-1.409v-0.906h1.226c0.215 0 0.394-0.030 0.536-0.089s0.248-0.148 0.318-0.266c0.071-0.118 0.107-0.265 0.107-0.44 0-0.177-0.036-0.326-0.107-0.448-0.069-0.122-0.176-0.213-0.32-0.276-0.142-0.064-0.322-0.096-0.539-0.096h-0.76v4.411h-1.127zM3.343 24.458l1.325 2.427h-1.245l-1.297-2.427h1.216z"></path>
<path fill="#333" style="fill: var(--color1, #333)" d="M5.789 26.885v-5.333h3.593v0.93h-2.466v1.271h2.281v0.93h-2.281v1.273h2.476v0.93h-3.604z"></path>
<path fill="#333" style="fill: var(--color1, #333)" d="M10.791 21.553h1.39l1.469 3.583h0.062l1.469-3.583h1.39v5.333h-1.094v-3.471h-0.044l-1.38 3.445h-0.745l-1.38-3.458h-0.044v3.484h-1.094v-5.333z"></path>
<path fill="#333" style="fill: var(--color1, #333)" d="M22.914 24.219c0 0.581-0.11 1.076-0.331 1.484-0.219 0.408-0.517 0.719-0.896 0.935-0.377 0.213-0.8 0.32-1.271 0.32-0.474 0-0.899-0.108-1.276-0.323s-0.674-0.527-0.893-0.935c-0.219-0.408-0.328-0.902-0.328-1.482 0-0.581 0.109-1.076 0.328-1.484s0.516-0.719 0.893-0.932c0.377-0.215 0.802-0.323 1.276-0.323 0.47 0 0.894 0.108 1.271 0.323 0.378 0.213 0.677 0.524 0.896 0.932 0.221 0.408 0.331 0.903 0.331 1.484zM21.771 24.219c0-0.377-0.056-0.694-0.169-0.953-0.111-0.259-0.268-0.455-0.471-0.588s-0.441-0.2-0.713-0.2c-0.273 0-0.51 0.067-0.713 0.2s-0.361 0.33-0.474 0.588c-0.111 0.259-0.167 0.576-0.167 0.953s0.056 0.694 0.167 0.953c0.113 0.259 0.271 0.455 0.474 0.588s0.441 0.2 0.713 0.2 0.51-0.067 0.713-0.2c0.203-0.134 0.36-0.33 0.471-0.588 0.113-0.259 0.169-0.576 0.169-0.953z"></path>
<path fill="#333" style="fill: var(--color1, #333)" d="M26.153 26.885h-1.89v-5.333h1.906c0.536 0 0.998 0.107 1.385 0.32 0.387 0.212 0.685 0.516 0.893 0.914 0.21 0.398 0.315 0.873 0.315 1.427 0 0.556-0.105 1.033-0.315 1.432-0.208 0.399-0.508 0.706-0.898 0.919-0.389 0.213-0.854 0.32-1.396 0.32zM25.39 25.919h0.716c0.333 0 0.614-0.059 0.841-0.177 0.229-0.12 0.401-0.305 0.516-0.555 0.116-0.252 0.174-0.576 0.174-0.974 0-0.394-0.058-0.716-0.174-0.966-0.115-0.25-0.286-0.434-0.513-0.552s-0.508-0.177-0.841-0.177h-0.719v3.401z"></path>
<path fill="#333" style="fill: var(--color1, #333)" d="M30.111 26.885v-5.333h3.593v0.93h-2.466v1.271h2.281v0.93h-2.281v1.273h2.476v0.93h-3.604z"></path>
<path fill="#333" style="fill: var(--color1, #333)" d="M35.114 26.885v-5.333h1.127v4.403h2.286v0.93h-3.414z"></path>
<path fill="#333" style="fill: var(--color1, #333)" d="M40.915 21.553v5.333h-1.127v-5.333h1.127z"></path>
<path fill="#333" style="fill: var(--color1, #333)" d="M46.816 21.553v5.333h-0.974l-2.32-3.356h-0.039v3.356h-1.127v-5.333h0.989l2.302 3.354h0.047v-3.354h1.122z"></path>
<path fill="#333" style="fill: var(--color1, #333)" d="M51.796 23.276c-0.036-0.127-0.088-0.239-0.154-0.336-0.066-0.099-0.147-0.182-0.242-0.25-0.094-0.069-0.201-0.122-0.323-0.159-0.12-0.036-0.253-0.055-0.398-0.055-0.273 0-0.512 0.068-0.719 0.203-0.205 0.135-0.365 0.332-0.479 0.591-0.115 0.257-0.172 0.571-0.172 0.943s0.056 0.687 0.169 0.948 0.273 0.459 0.479 0.596c0.207 0.135 0.45 0.203 0.732 0.203 0.255 0 0.473-0.045 0.654-0.135 0.182-0.092 0.321-0.221 0.417-0.388 0.097-0.167 0.146-0.364 0.146-0.591l0.229 0.034h-1.375v-0.849h2.232v0.672c0 0.469-0.099 0.871-0.297 1.208-0.198 0.335-0.47 0.594-0.818 0.776-0.347 0.181-0.745 0.271-1.192 0.271-0.5 0-0.939-0.11-1.318-0.331-0.378-0.222-0.673-0.537-0.885-0.945-0.21-0.41-0.315-0.896-0.315-1.458 0-0.432 0.062-0.818 0.187-1.156 0.127-0.34 0.304-0.628 0.531-0.864s0.492-0.416 0.794-0.539 0.629-0.185 0.982-0.185c0.302 0 0.583 0.044 0.844 0.133 0.26 0.087 0.491 0.21 0.693 0.37 0.203 0.16 0.369 0.35 0.497 0.57 0.128 0.219 0.211 0.46 0.247 0.724h-1.146z"></path>
<path fill="#333" style="fill: var(--color1, #333)" d="M58.176 26.963c-0.368 0-0.686-0.066-0.953-0.198s-0.473-0.311-0.617-0.536c-0.142-0.227-0.214-0.481-0.214-0.76 0-0.208 0.042-0.393 0.125-0.555s0.2-0.31 0.349-0.445c0.149-0.137 0.323-0.273 0.521-0.409l1.034-0.68c0.134-0.085 0.232-0.174 0.294-0.268 0.063-0.095 0.094-0.199 0.094-0.31 0-0.106-0.043-0.204-0.128-0.294s-0.206-0.135-0.362-0.133c-0.104 0-0.194 0.023-0.271 0.070-0.076 0.045-0.136 0.105-0.18 0.18-0.042 0.073-0.063 0.154-0.063 0.245 0 0.111 0.031 0.224 0.094 0.339s0.146 0.236 0.25 0.364c0.104 0.127 0.218 0.264 0.341 0.411l2.528 2.901h-1.156l-2.109-2.349c-0.139-0.158-0.278-0.323-0.417-0.495-0.137-0.174-0.252-0.358-0.344-0.552-0.092-0.196-0.138-0.409-0.138-0.638 0-0.259 0.060-0.491 0.18-0.698 0.122-0.207 0.292-0.37 0.51-0.49 0.219-0.121 0.474-0.182 0.766-0.182 0.285 0 0.53 0.058 0.737 0.174 0.208 0.115 0.368 0.267 0.479 0.458 0.113 0.189 0.169 0.398 0.169 0.625 0 0.252-0.063 0.48-0.187 0.685-0.123 0.203-0.297 0.385-0.521 0.547l-1.088 0.784c-0.148 0.108-0.257 0.218-0.328 0.331-0.069 0.111-0.104 0.218-0.104 0.32 0 0.127 0.031 0.24 0.094 0.341s0.151 0.18 0.266 0.24c0.115 0.057 0.249 0.086 0.404 0.086 0.187 0 0.372-0.043 0.555-0.128 0.184-0.087 0.351-0.209 0.5-0.367 0.151-0.16 0.272-0.349 0.362-0.568s0.135-0.461 0.135-0.726h0.919c0 0.326-0.036 0.621-0.107 0.883-0.071 0.26-0.17 0.488-0.297 0.682-0.127 0.193-0.272 0.351-0.435 0.474-0.052 0.033-0.102 0.064-0.151 0.094s-0.099 0.061-0.151 0.094c-0.198 0.16-0.419 0.275-0.664 0.346-0.243 0.071-0.483 0.107-0.721 0.107z"></path>
<path fill="#333" style="fill: var(--color1, #333)" d="M64.226 26.885v-5.333h1.127v2.2h2.289v-2.2h1.125v5.333h-1.125v-2.203h-2.289v2.203h-1.127z"></path>
<path fill="#333" style="fill: var(--color1, #333)" d="M71.129 26.885h-1.208l1.841-5.333h1.453l1.838 5.333h-1.208l-1.336-4.114h-0.042l-1.338 4.114zM71.054 24.789h2.854v0.88h-2.854v-0.88z"></path>
<path fill="#333" style="fill: var(--color1, #333)" d="M80.669 21.553v5.333h-0.974l-2.32-3.356h-0.039v3.356h-1.127v-5.333h0.99l2.302 3.354h0.047v-3.354h1.122z"></path>
<path fill="#333" style="fill: var(--color1, #333)" d="M84.004 26.885h-1.89v-5.333h1.906c0.537 0 0.998 0.107 1.386 0.32 0.387 0.212 0.685 0.516 0.893 0.914 0.21 0.398 0.315 0.873 0.315 1.427 0 0.556-0.105 1.033-0.315 1.432-0.208 0.399-0.508 0.706-0.898 0.919s-0.854 0.32-1.396 0.32zM83.241 25.919h0.716c0.333 0 0.614-0.059 0.841-0.177 0.229-0.12 0.401-0.305 0.516-0.555 0.116-0.252 0.175-0.576 0.175-0.974 0-0.394-0.059-0.716-0.175-0.966-0.115-0.25-0.286-0.434-0.513-0.552s-0.508-0.177-0.841-0.177h-0.719v3.401z"></path>
<path fill="#333" style="fill: var(--color1, #333)" d="M87.326 21.553h1.263l1.216 2.297h0.052l1.216-2.297h1.263l-1.945 3.447v1.885h-1.119v-1.885l-1.945-3.447z"></path>
<path fill="#333" style="fill: var(--color1, #333)" d="M93.465 21.553h1.391l1.468 3.583h0.063l1.468-3.583h1.391v5.333h-1.094v-3.471h-0.044l-1.38 3.445h-0.744l-1.38-3.458h-0.044v3.484h-1.094v-5.333z"></path>
<path fill="#333" style="fill: var(--color1, #333)" d="M101.607 26.885h-1.209l1.841-5.333h1.453l1.838 5.333h-1.208l-1.336-4.114h-0.042l-1.338 4.114zM101.532 24.789h2.854v0.88h-2.854v-0.88z"></path>
<path fill="#333" style="fill: var(--color1, #333)" d="M111.146 21.553v5.333h-0.973l-2.32-3.356h-0.039v3.356h-1.127v-5.333h0.989l2.302 3.354h0.047v-3.354h1.122z"></path>
<path fill="#f27d08" style="fill: var(--color2, #f27d08)" d="M0 30.144h112.429v1.629h-112.429v-1.629z"></path>
</symbol>
</defs>
</svg>
